<mxfile host="app.diagrams.net" agent="Mozilla/5.0 (X11; Linux x86_64) AppleWebKit/537.36 (KHTML, like Gecko) Chrome/129.0.0.0 Safari/537.36" version="24.8.6">
  <diagram id="prtHgNgQTEPvFCAcTncT" name="Page-1">
    <mxGraphModel dx="986" dy="506" grid="1" gridSize="10" guides="1" tooltips="1" connect="1" arrows="1" fold="1" page="1" pageScale="1" pageWidth="1654" pageHeight="1169" math="0" shadow="0">
      <root>
        <mxCell id="0" />
        <mxCell id="1" parent="0" />
        <mxCell id="gdhncfSMQqKix8lpR7uV-37" value="PRIJAVA STUDENATA NA ERAMUS" style="swimlane;html=1;childLayout=stackLayout;resizeParent=1;resizeParentMax=0;horizontal=0;startSize=20;horizontalStack=0;" vertex="1" parent="1">
          <mxGeometry x="200" y="1030" width="1680" height="820" as="geometry">
            <mxRectangle x="74" y="40" width="40" height="230" as="alternateBounds" />
          </mxGeometry>
        </mxCell>
        <mxCell id="gdhncfSMQqKix8lpR7uV-38" style="edgeStyle=orthogonalEdgeStyle;rounded=0;orthogonalLoop=1;jettySize=auto;html=1;endArrow=classic;endFill=1;" edge="1" parent="gdhncfSMQqKix8lpR7uV-37">
          <mxGeometry relative="1" as="geometry">
            <mxPoint x="300" y="320" as="sourcePoint" />
            <mxPoint x="299.9999999999998" y="320" as="targetPoint" />
          </mxGeometry>
        </mxCell>
        <mxCell id="gdhncfSMQqKix8lpR7uV-39" value="Student" style="swimlane;html=1;startSize=20;horizontal=0;" vertex="1" parent="gdhncfSMQqKix8lpR7uV-37">
          <mxGeometry x="20" width="1660" height="120" as="geometry" />
        </mxCell>
        <mxCell id="gdhncfSMQqKix8lpR7uV-40" value="" style="edgeStyle=orthogonalEdgeStyle;rounded=0;orthogonalLoop=1;jettySize=auto;html=1;" edge="1" parent="gdhncfSMQqKix8lpR7uV-39" source="gdhncfSMQqKix8lpR7uV-41" target="gdhncfSMQqKix8lpR7uV-42">
          <mxGeometry relative="1" as="geometry" />
        </mxCell>
        <mxCell id="gdhncfSMQqKix8lpR7uV-41" value="" style="ellipse;whiteSpace=wrap;html=1;fillColor=#d5e8d4;strokeColor=#82b366;" vertex="1" parent="gdhncfSMQqKix8lpR7uV-39">
          <mxGeometry x="40" y="40" width="40" height="40" as="geometry" />
        </mxCell>
        <mxCell id="gdhncfSMQqKix8lpR7uV-42" value="Podnošenje prijave online" style="rounded=0;whiteSpace=wrap;html=1;fontFamily=Helvetica;fontSize=12;fontColor=#000000;align=center;" vertex="1" parent="gdhncfSMQqKix8lpR7uV-39">
          <mxGeometry x="120" y="30" width="80" height="60" as="geometry" />
        </mxCell>
        <mxCell id="gdhncfSMQqKix8lpR7uV-59" value="E-Potpis&lt;div&gt;Ugovora&lt;/div&gt;" style="rounded=0;whiteSpace=wrap;html=1;fontFamily=Helvetica;fontSize=12;fontColor=#000000;align=center;" vertex="1" parent="gdhncfSMQqKix8lpR7uV-39">
          <mxGeometry x="1060" y="30" width="80" height="60" as="geometry" />
        </mxCell>
        <mxCell id="gdhncfSMQqKix8lpR7uV-45" value="Sustav" style="swimlane;html=1;startSize=20;horizontal=0;" vertex="1" parent="gdhncfSMQqKix8lpR7uV-37">
          <mxGeometry x="20" y="120" width="1660" height="220" as="geometry">
            <mxRectangle x="20" y="120" width="1590" height="30" as="alternateBounds" />
          </mxGeometry>
        </mxCell>
        <mxCell id="gdhncfSMQqKix8lpR7uV-46" value="" style="rhombus;whiteSpace=wrap;html=1;fontFamily=Helvetica;fontSize=12;fontColor=#000000;align=center;" vertex="1" parent="gdhncfSMQqKix8lpR7uV-45">
          <mxGeometry x="330" y="40" width="40" height="40" as="geometry" />
        </mxCell>
        <mxCell id="gdhncfSMQqKix8lpR7uV-47" value="" style="edgeStyle=orthogonalEdgeStyle;rounded=0;orthogonalLoop=1;jettySize=auto;html=1;endArrow=classic;endFill=1;" edge="1" parent="gdhncfSMQqKix8lpR7uV-45" source="gdhncfSMQqKix8lpR7uV-48" target="gdhncfSMQqKix8lpR7uV-46">
          <mxGeometry relative="1" as="geometry" />
        </mxCell>
        <mxCell id="gdhncfSMQqKix8lpR7uV-48" value="Automatska validacija prijave" style="rounded=0;whiteSpace=wrap;html=1;fontFamily=Helvetica;fontSize=12;fontColor=#000000;align=center;" vertex="1" parent="gdhncfSMQqKix8lpR7uV-45">
          <mxGeometry x="226" y="30" width="80" height="60" as="geometry" />
        </mxCell>
        <mxCell id="gdhncfSMQqKix8lpR7uV-57" value="Slanje prijave administratoru" style="rounded=0;whiteSpace=wrap;html=1;fontFamily=Helvetica;fontSize=12;fontColor=#000000;align=center;" vertex="1" parent="gdhncfSMQqKix8lpR7uV-45">
          <mxGeometry x="410" y="30" width="80" height="60" as="geometry" />
        </mxCell>
        <mxCell id="gdhncfSMQqKix8lpR7uV-65" value="" style="edgeStyle=orthogonalEdgeStyle;rounded=0;orthogonalLoop=1;jettySize=auto;html=1;entryX=0;entryY=0.5;entryDx=0;entryDy=0;" edge="1" parent="gdhncfSMQqKix8lpR7uV-45" source="gdhncfSMQqKix8lpR7uV-46" target="gdhncfSMQqKix8lpR7uV-57">
          <mxGeometry relative="1" as="geometry">
            <mxPoint x="410" y="60" as="targetPoint" />
          </mxGeometry>
        </mxCell>
        <mxCell id="gdhncfSMQqKix8lpR7uV-74" value="Da" style="edgeLabel;html=1;align=center;verticalAlign=middle;resizable=0;points=[];" vertex="1" connectable="0" parent="gdhncfSMQqKix8lpR7uV-65">
          <mxGeometry x="-0.4814" y="-2" relative="1" as="geometry">
            <mxPoint as="offset" />
          </mxGeometry>
        </mxCell>
        <mxCell id="gdhncfSMQqKix8lpR7uV-64" style="edgeStyle=orthogonalEdgeStyle;rounded=0;orthogonalLoop=1;jettySize=auto;html=1;exitX=0.5;exitY=1;exitDx=0;exitDy=0;entryX=0;entryY=0.5;entryDx=0;entryDy=0;" edge="1" parent="gdhncfSMQqKix8lpR7uV-45" source="gdhncfSMQqKix8lpR7uV-46" target="gdhncfSMQqKix8lpR7uV-75">
          <mxGeometry relative="1" as="geometry">
            <mxPoint x="409.9999999999918" y="160" as="targetPoint" />
            <Array as="points">
              <mxPoint x="350" y="150" />
            </Array>
          </mxGeometry>
        </mxCell>
        <mxCell id="gdhncfSMQqKix8lpR7uV-73" value="Ne" style="edgeLabel;html=1;align=center;verticalAlign=middle;resizable=0;points=[];" vertex="1" connectable="0" parent="gdhncfSMQqKix8lpR7uV-64">
          <mxGeometry x="-0.7655" y="-1" relative="1" as="geometry">
            <mxPoint as="offset" />
          </mxGeometry>
        </mxCell>
        <mxCell id="gdhncfSMQqKix8lpR7uV-75" value="Obavijest o greškama" style="rounded=0;whiteSpace=wrap;html=1;fontFamily=Helvetica;fontSize=12;fontColor=#000000;align=center;" vertex="1" parent="gdhncfSMQqKix8lpR7uV-45">
          <mxGeometry x="410" y="120" width="80" height="60" as="geometry" />
        </mxCell>
        <mxCell id="gdhncfSMQqKix8lpR7uV-56" value="Administrator" style="swimlane;html=1;startSize=20;horizontal=0;" vertex="1" parent="gdhncfSMQqKix8lpR7uV-37">
          <mxGeometry x="20" y="340" width="1660" height="120" as="geometry" />
        </mxCell>
        <mxCell id="gdhncfSMQqKix8lpR7uV-52" value="Organizacija selekcijskog postupka" style="rounded=0;whiteSpace=wrap;html=1;fontFamily=Helvetica;fontSize=12;fontColor=#000000;align=center;" vertex="1" parent="gdhncfSMQqKix8lpR7uV-56">
          <mxGeometry x="530" y="20" width="80" height="60" as="geometry" />
        </mxCell>
        <mxCell id="gdhncfSMQqKix8lpR7uV-78" style="edgeStyle=orthogonalEdgeStyle;rounded=0;orthogonalLoop=1;jettySize=auto;html=1;exitX=0;exitY=0.75;exitDx=0;exitDy=0;" edge="1" parent="gdhncfSMQqKix8lpR7uV-56" source="gdhncfSMQqKix8lpR7uV-54">
          <mxGeometry relative="1" as="geometry">
            <mxPoint x="929.8620689655172" y="64.68965517241395" as="targetPoint" />
          </mxGeometry>
        </mxCell>
        <mxCell id="gdhncfSMQqKix8lpR7uV-54" value="Digitalna izrada ugovora" style="rounded=0;whiteSpace=wrap;html=1;fontFamily=Helvetica;fontSize=12;fontColor=#000000;align=center;" vertex="1" parent="gdhncfSMQqKix8lpR7uV-56">
          <mxGeometry x="930" y="20" width="80" height="60" as="geometry" />
        </mxCell>
        <mxCell id="gdhncfSMQqKix8lpR7uV-55" value="Predaja ugovora koordinatoru" style="rounded=0;whiteSpace=wrap;html=1;fontFamily=Helvetica;fontSize=12;fontColor=#000000;align=center;" vertex="1" parent="gdhncfSMQqKix8lpR7uV-56">
          <mxGeometry x="1180" y="20" width="80" height="60" as="geometry" />
        </mxCell>
        <mxCell id="gdhncfSMQqKix8lpR7uV-82" value="Odobrenje i završetak procesa" style="rounded=0;whiteSpace=wrap;html=1;fontFamily=Helvetica;fontSize=12;fontColor=#000000;align=center;" vertex="1" parent="gdhncfSMQqKix8lpR7uV-56">
          <mxGeometry x="1560" y="20" width="80" height="60" as="geometry" />
        </mxCell>
        <mxCell id="gdhncfSMQqKix8lpR7uV-58" value="Povjerenstvo" style="swimlane;html=1;startSize=20;horizontal=0;" vertex="1" parent="gdhncfSMQqKix8lpR7uV-37">
          <mxGeometry x="20" y="460" width="1660" height="120" as="geometry">
            <mxRectangle x="20" y="360" width="660" height="30" as="alternateBounds" />
          </mxGeometry>
        </mxCell>
        <mxCell id="gdhncfSMQqKix8lpR7uV-53" value="Digitalni zapisnik i bodovanje" style="rounded=0;whiteSpace=wrap;html=1;fontFamily=Helvetica;fontSize=12;fontColor=#000000;align=center;" vertex="1" parent="gdhncfSMQqKix8lpR7uV-58">
          <mxGeometry x="660" y="30" width="80" height="60" as="geometry" />
        </mxCell>
        <mxCell id="gdhncfSMQqKix8lpR7uV-44" value="Elektronski potpisi" style="rounded=0;whiteSpace=wrap;html=1;fontFamily=Helvetica;fontSize=12;fontColor=#000000;align=center;" vertex="1" parent="gdhncfSMQqKix8lpR7uV-58">
          <mxGeometry x="800" y="30" width="80" height="60" as="geometry" />
        </mxCell>
        <mxCell id="gdhncfSMQqKix8lpR7uV-68" style="edgeStyle=orthogonalEdgeStyle;rounded=0;orthogonalLoop=1;jettySize=auto;html=1;entryX=0;entryY=0.5;entryDx=0;entryDy=0;" edge="1" parent="gdhncfSMQqKix8lpR7uV-58" source="gdhncfSMQqKix8lpR7uV-53" target="gdhncfSMQqKix8lpR7uV-44">
          <mxGeometry relative="1" as="geometry" />
        </mxCell>
        <mxCell id="gdhncfSMQqKix8lpR7uV-60" value="Dekan/Koordinator" style="swimlane;html=1;startSize=20;horizontal=0;" vertex="1" parent="gdhncfSMQqKix8lpR7uV-37">
          <mxGeometry x="20" y="580" width="1660" height="120" as="geometry">
            <mxRectangle x="20" y="360" width="660" height="30" as="alternateBounds" />
          </mxGeometry>
        </mxCell>
        <mxCell id="gdhncfSMQqKix8lpR7uV-61" value="E-Potpis&lt;div&gt;Ugovora&lt;/div&gt;" style="rounded=0;whiteSpace=wrap;html=1;fontFamily=Helvetica;fontSize=12;fontColor=#000000;align=center;" vertex="1" parent="gdhncfSMQqKix8lpR7uV-60">
          <mxGeometry x="1300" y="30" width="80" height="60" as="geometry" />
        </mxCell>
        <mxCell id="gdhncfSMQqKix8lpR7uV-62" value="Računovodstvo" style="swimlane;html=1;startSize=20;horizontal=0;" vertex="1" parent="gdhncfSMQqKix8lpR7uV-37">
          <mxGeometry x="20" y="700" width="1660" height="120" as="geometry">
            <mxRectangle x="20" y="360" width="660" height="30" as="alternateBounds" />
          </mxGeometry>
        </mxCell>
        <mxCell id="gdhncfSMQqKix8lpR7uV-79" value="Automatska provjera obračuna" style="rounded=0;whiteSpace=wrap;html=1;fontFamily=Helvetica;fontSize=12;fontColor=#000000;align=center;" vertex="1" parent="gdhncfSMQqKix8lpR7uV-62">
          <mxGeometry x="1430" y="24" width="80" height="60" as="geometry" />
        </mxCell>
        <mxCell id="gdhncfSMQqKix8lpR7uV-63" style="edgeStyle=orthogonalEdgeStyle;rounded=0;orthogonalLoop=1;jettySize=auto;html=1;exitX=1;exitY=0.5;exitDx=0;exitDy=0;entryX=0;entryY=0.5;entryDx=0;entryDy=0;" edge="1" parent="gdhncfSMQqKix8lpR7uV-37" source="gdhncfSMQqKix8lpR7uV-42" target="gdhncfSMQqKix8lpR7uV-48">
          <mxGeometry relative="1" as="geometry">
            <Array as="points">
              <mxPoint x="226" y="60" />
              <mxPoint x="226" y="180" />
            </Array>
          </mxGeometry>
        </mxCell>
        <mxCell id="gdhncfSMQqKix8lpR7uV-69" style="edgeStyle=orthogonalEdgeStyle;rounded=0;orthogonalLoop=1;jettySize=auto;html=1;entryX=0;entryY=0.5;entryDx=0;entryDy=0;" edge="1" parent="gdhncfSMQqKix8lpR7uV-37" source="gdhncfSMQqKix8lpR7uV-44" target="gdhncfSMQqKix8lpR7uV-54">
          <mxGeometry relative="1" as="geometry">
            <Array as="points">
              <mxPoint x="860" y="390" />
            </Array>
            <mxPoint x="930" y="400" as="targetPoint" />
          </mxGeometry>
        </mxCell>
        <mxCell id="gdhncfSMQqKix8lpR7uV-70" style="edgeStyle=orthogonalEdgeStyle;rounded=0;orthogonalLoop=1;jettySize=auto;html=1;entryX=0;entryY=0.5;entryDx=0;entryDy=0;" edge="1" parent="gdhncfSMQqKix8lpR7uV-37" source="gdhncfSMQqKix8lpR7uV-54" target="gdhncfSMQqKix8lpR7uV-59">
          <mxGeometry relative="1" as="geometry" />
        </mxCell>
        <mxCell id="gdhncfSMQqKix8lpR7uV-72" style="edgeStyle=orthogonalEdgeStyle;rounded=0;orthogonalLoop=1;jettySize=auto;html=1;entryX=0;entryY=0.5;entryDx=0;entryDy=0;" edge="1" parent="gdhncfSMQqKix8lpR7uV-37" source="gdhncfSMQqKix8lpR7uV-55" target="gdhncfSMQqKix8lpR7uV-61">
          <mxGeometry relative="1" as="geometry" />
        </mxCell>
        <mxCell id="gdhncfSMQqKix8lpR7uV-76" style="edgeStyle=orthogonalEdgeStyle;rounded=0;orthogonalLoop=1;jettySize=auto;html=1;entryX=0.5;entryY=1;entryDx=0;entryDy=0;exitX=0.5;exitY=1;exitDx=0;exitDy=0;" edge="1" parent="gdhncfSMQqKix8lpR7uV-37" source="gdhncfSMQqKix8lpR7uV-75" target="gdhncfSMQqKix8lpR7uV-42">
          <mxGeometry relative="1" as="geometry">
            <mxPoint x="520" y="190" as="sourcePoint" />
            <mxPoint x="560" y="190" as="targetPoint" />
          </mxGeometry>
        </mxCell>
        <mxCell id="gdhncfSMQqKix8lpR7uV-66" style="edgeStyle=orthogonalEdgeStyle;rounded=0;orthogonalLoop=1;jettySize=auto;html=1;entryX=0;entryY=0.5;entryDx=0;entryDy=0;" edge="1" parent="gdhncfSMQqKix8lpR7uV-37" source="gdhncfSMQqKix8lpR7uV-57" target="gdhncfSMQqKix8lpR7uV-52">
          <mxGeometry relative="1" as="geometry" />
        </mxCell>
        <mxCell id="gdhncfSMQqKix8lpR7uV-51" style="edgeStyle=orthogonalEdgeStyle;rounded=0;orthogonalLoop=1;jettySize=auto;html=1;entryX=0;entryY=0.5;entryDx=0;entryDy=0;" edge="1" parent="gdhncfSMQqKix8lpR7uV-37" source="gdhncfSMQqKix8lpR7uV-52" target="gdhncfSMQqKix8lpR7uV-53">
          <mxGeometry relative="1" as="geometry">
            <mxPoint x="670" y="180" as="targetPoint" />
          </mxGeometry>
        </mxCell>
        <mxCell id="gdhncfSMQqKix8lpR7uV-71" style="edgeStyle=orthogonalEdgeStyle;rounded=0;orthogonalLoop=1;jettySize=auto;html=1;entryX=0;entryY=0.5;entryDx=0;entryDy=0;" edge="1" parent="gdhncfSMQqKix8lpR7uV-37" source="gdhncfSMQqKix8lpR7uV-59" target="gdhncfSMQqKix8lpR7uV-55">
          <mxGeometry relative="1" as="geometry" />
        </mxCell>
        <mxCell id="gdhncfSMQqKix8lpR7uV-80" style="edgeStyle=orthogonalEdgeStyle;rounded=0;orthogonalLoop=1;jettySize=auto;html=1;exitX=1;exitY=0.5;exitDx=0;exitDy=0;entryX=0;entryY=0.5;entryDx=0;entryDy=0;" edge="1" parent="gdhncfSMQqKix8lpR7uV-37" source="gdhncfSMQqKix8lpR7uV-61" target="gdhncfSMQqKix8lpR7uV-79">
          <mxGeometry relative="1" as="geometry" />
        </mxCell>
        <mxCell id="gdhncfSMQqKix8lpR7uV-83" style="edgeStyle=orthogonalEdgeStyle;rounded=0;orthogonalLoop=1;jettySize=auto;html=1;exitX=1;exitY=0.5;exitDx=0;exitDy=0;entryX=0;entryY=0.5;entryDx=0;entryDy=0;" edge="1" parent="gdhncfSMQqKix8lpR7uV-37" source="gdhncfSMQqKix8lpR7uV-79" target="gdhncfSMQqKix8lpR7uV-82">
          <mxGeometry relative="1" as="geometry">
            <mxPoint x="1550" y="390" as="targetPoint" />
          </mxGeometry>
        </mxCell>
      </root>
    </mxGraphModel>
  </diagram>
</mxfile>
